<?xml version="1.0" standalone="no"?>
<!DOCTYPE svg PUBLIC "-//W3C//DTD SVG 20010904//EN"
 "http://www.w3.org/TR/2001/REC-SVG-20010904/DTD/svg10.dtd">
<svg version="1.0" xmlns="http://www.w3.org/2000/svg"
 width="700.000000pt" height="700.000000pt" viewBox="0 0 700.000000 700.000000"
 preserveAspectRatio="xMidYMid meet">
<metadata>
Created by potrace 1.14, written by Peter Selinger 2001-2017
</metadata>
<g transform="translate(0.000000,700.000000) scale(0.100000,-0.100000)"
fill="#000000" stroke="none">
<path d="M3337 6994 c-1 -1 -47 -5 -102 -8 -55 -3 -111 -8 -125 -10 -14 -2
-52 -7 -85 -11 -86 -10 -291 -51 -404 -81 -527 -139 -997 -387 -1416 -748
-118 -103 -316 -306 -407 -420 -44 -56 -88 -111 -98 -123 -58 -68 -75 -24 196
-493 135 -234 256 -443 269 -465 42 -75 155 -270 164 -285 6 -8 22 -37 37 -65
14 -27 31 -56 36 -63 6 -7 20 -29 32 -50 11 -21 50 -89 85 -151 l65 -113 32
114 c92 323 251 599 480 834 117 119 297 266 364 297 8 4 33 19 55 33 75 47
263 133 371 169 290 96 650 125 914 75 30 -6 69 -13 85 -16 17 -2 46 -10 65
-15 23 -7 315 -12 830 -15 437 -2 992 -5 1232 -7 296 -2 435 1 431 8 -4 5 -35
53 -71 105 -177 259 -425 527 -672 724 -47 37 -93 74 -103 82 -42 34 -209 146
-296 199 -354 215 -820 389 -1206 451 -21 3 -45 7 -54 9 -9 2 -44 6 -76 10
-33 4 -69 9 -80 11 -59 12 -538 27 -548 18z"/>
<path d="M335 4988 c-78 -167 -186 -457 -210 -563 -2 -11 -14 -58 -26 -105
-24 -99 -26 -107 -39 -180 -16 -91 -19 -111 -26 -159 -3 -25 -8 -57 -10 -71
-12 -78 -19 -220 -19 -415 0 -226 4 -289 31 -505 15 -120 71 -364 121 -530 69
-228 221 -566 342 -760 29 -47 58 -94 64 -105 30 -49 176 -248 236 -320 141
-170 306 -335 478 -477 85 -71 327 -248 338 -248 3 0 35 -19 72 -43 93 -59
258 -146 373 -197 52 -23 114 -50 138 -61 109 -50 473 -157 617 -184 110 -19
207 -35 248 -40 26 -3 66 -7 90 -10 47 -5 40 -12 110 115 17 30 41 72 54 92
13 21 23 39 23 41 0 2 45 84 100 182 55 97 100 181 100 186 0 5 5 9 10 9 6 0
10 5 10 10 0 6 19 43 41 83 23 40 53 92 67 117 130 230 249 441 265 470 11 19
34 60 50 90 17 30 49 87 72 125 64 110 67 106 -47 73 -56 -15 -122 -31 -147
-34 -25 -3 -48 -7 -51 -9 -31 -18 -430 -27 -540 -13 -240 33 -417 85 -626 188
-465 226 -825 634 -993 1124 -34 99 -74 179 -156 318 -5 9 -26 45 -46 80 -92
161 -327 566 -350 603 -10 17 -22 36 -25 44 -4 7 -61 106 -127 220 -66 113
-129 222 -140 241 -33 59 -323 562 -351 610 -15 25 -34 60 -43 78 -9 17 -20
32 -23 32 -4 0 -28 -46 -55 -102z"/>
<path d="M4838 4942 c-10 -2 14 -33 69 -90 267 -275 455 -642 519 -1007 4 -22
8 -49 11 -60 17 -92 23 -361 9 -500 -26 -272 -142 -602 -294 -835 -49 -76
-129 -186 -157 -216 -5 -6 -32 -35 -60 -64 -27 -30 -55 -63 -61 -74 -19 -36
-65 -118 -104 -186 -30 -52 -333 -592 -430 -765 -85 -153 -497 -886 -561 -999
-44 -76 -79 -139 -79 -141 0 -1 12 -1 28 0 15 2 61 6 102 9 150 13 185 18 360
52 195 38 482 127 677 210 1037 443 1798 1357 2049 2459 18 78 52 276 59 345
3 30 8 73 11 95 9 67 12 515 3 600 -14 153 -24 223 -49 360 -25 131 -26 137
-50 230 -12 44 -23 87 -25 95 -2 8 -8 27 -14 43 -6 15 -13 38 -15 50 -6 32
-89 254 -114 306 -12 25 -22 51 -22 58 0 7 -6 13 -12 14 -7 1 -380 3 -828 5
-448 3 -858 5 -911 7 -53 1 -103 1 -111 -1z"/>
<path d="M3345 4873 c-324 -43 -604 -180 -825 -403 -360 -363 -490 -883 -344
-1370 27 -88 34 -107 90 -225 87 -185 274 -398 457 -520 233 -157 478 -234
753 -240 767 -14 1402 607 1407 1375 3 539 -311 1032 -805 1263 -68 32 -206
80 -260 91 -13 3 -48 10 -78 16 -54 12 -337 21 -395 13z"/>
</g>
</svg>
